<svg width="330" height="198" viewBox="0 0 330 198" fill="none" xmlns="http://www.w3.org/2000/svg">
<g clip-path="url(#clip0)">
<path d="M128.124 177.404C126.349 178.028 124.442 178.185 122.589 177.858C120.735 177.531 118.997 176.732 117.541 175.537C113.834 172.421 112.672 167.289 111.727 162.537L108.93 148.48L114.785 152.518C118.997 155.421 123.303 158.417 126.218 162.623C129.134 166.828 130.407 172.569 128.064 177.12" fill="#E6E6E6"/>
<path d="M127.624 194.422C128.216 190.099 128.826 185.721 128.41 181.352C128.041 177.471 126.859 173.681 124.452 170.574C123.174 168.928 121.62 167.517 119.858 166.406C119.398 166.115 118.976 166.844 119.433 167.133C122.481 169.062 124.839 171.911 126.166 175.268C127.632 179.002 127.868 183.071 127.615 187.037C127.462 189.436 127.138 191.818 126.812 194.198C126.786 194.306 126.802 194.419 126.857 194.515C126.912 194.611 127.001 194.683 127.106 194.716C127.214 194.745 127.328 194.731 127.425 194.676C127.522 194.62 127.593 194.529 127.624 194.422V194.422Z" fill="#F2F2F2"/>
<path d="M121.915 186.773C121.154 187.932 120.107 188.875 118.876 189.511C117.644 190.147 116.27 190.455 114.886 190.405C111.327 190.236 108.361 187.749 105.69 185.389L97.7914 178.405L103.019 178.155C106.778 177.975 110.635 177.807 114.216 178.968C117.796 180.128 121.099 182.922 121.753 186.633" fill="#E6E6E6"/>
<path d="M129.299 196.907C126.446 191.853 123.137 186.235 117.225 184.44C115.581 183.943 113.857 183.764 112.146 183.915C111.607 183.962 111.742 184.794 112.28 184.747C115.148 184.509 118.01 185.267 120.384 186.894C122.67 188.452 124.449 190.617 125.955 192.913C126.877 194.32 127.703 195.786 128.53 197.25C128.794 197.718 129.566 197.38 129.299 196.907V196.907Z" fill="#F2F2F2"/>
<path d="M205.759 95.6564L143.566 147.27C142.783 147.918 141.776 148.229 140.765 148.134C139.754 148.039 138.822 147.547 138.173 146.765L111.955 115.09C111.308 114.307 110.998 113.298 111.093 112.286C111.187 111.274 111.679 110.34 112.46 109.69L174.654 58.0765C175.436 57.4286 176.444 57.1179 177.455 57.2127C178.466 57.3075 179.398 57.7999 180.047 58.582L206.264 90.2565C206.911 91.04 207.221 92.0486 207.127 93.061C207.032 94.0733 206.54 95.0067 205.759 95.6564Z" fill="#CCCCCC"/>
<path d="M203.267 94.1023L142.503 144.53C142.1 144.863 141.581 145.023 141.06 144.975C140.539 144.926 140.059 144.672 139.725 144.269L114.692 114.026C114.359 113.623 114.199 113.103 114.248 112.582C114.297 112.06 114.55 111.579 114.952 111.245L175.716 60.8173C176.119 60.4835 176.638 60.3234 177.159 60.3723C177.68 60.4211 178.16 60.6748 178.494 61.0777L203.527 91.3205C203.86 91.7241 204.02 92.2437 203.971 92.7652C203.922 93.2867 203.669 93.7676 203.267 94.1023Z" fill="white"/>
<path d="M180.971 82.2434L150.231 107.754C150.044 107.91 149.827 108.027 149.594 108.099C149.361 108.171 149.116 108.196 148.873 108.173C148.63 108.151 148.394 108.08 148.179 107.966C147.963 107.852 147.772 107.697 147.617 107.509C147.461 107.321 147.344 107.104 147.272 106.87C147.2 106.637 147.175 106.392 147.197 106.149C147.22 105.906 147.29 105.669 147.404 105.454C147.518 105.238 147.674 105.046 147.861 104.891L178.601 79.3802C178.788 79.2244 179.005 79.1071 179.238 79.0351C179.471 78.9631 179.716 78.9377 179.959 78.9605C180.201 78.9832 180.437 79.0537 180.653 79.1677C180.869 79.2818 181.06 79.4373 181.215 79.6253C181.371 79.8133 181.488 80.0301 181.56 80.2634C181.632 80.4968 181.657 80.742 181.634 80.9851C181.612 81.2282 181.541 81.4645 181.427 81.6804C181.314 81.8963 181.158 82.0876 180.971 82.2434V82.2434Z" fill="#CCCCCC"/>
<path d="M165.926 84.4647L145.195 101.669C144.816 101.984 144.327 102.135 143.837 102.089C143.347 102.043 142.895 101.804 142.58 101.424C142.266 101.045 142.115 100.555 142.161 100.064C142.207 99.5735 142.446 99.1209 142.825 98.8062L163.556 81.6015C163.936 81.2868 164.424 81.1358 164.914 81.1818C165.405 81.2278 165.857 81.4669 166.171 81.8466C166.485 82.2263 166.636 82.7154 166.59 83.2064C166.544 83.6974 166.305 84.15 165.926 84.4647Z" fill="#CCCCCC"/>
<path d="M133.803 119.651C137.008 119.651 139.606 117.049 139.606 113.84C139.606 110.631 137.008 108.029 133.803 108.029C130.599 108.029 128 110.631 128 113.84C128 117.049 130.599 119.651 133.803 119.651Z" fill="#FFA345"/>
<path d="M179.964 102.193C180.989 102.193 181.821 101.36 181.821 100.333C181.821 99.3064 180.989 98.4739 179.964 98.4739C178.938 98.4739 178.107 99.3064 178.107 100.333C178.107 101.36 178.938 102.193 179.964 102.193Z" fill="#E6E6E6"/>
<path d="M184.968 98.0398C185.993 98.0398 186.825 97.2074 186.825 96.1804C186.825 95.1535 185.993 94.321 184.968 94.321C183.942 94.321 183.111 95.1535 183.111 96.1804C183.111 97.2074 183.942 98.0398 184.968 98.0398Z" fill="#E6E6E6"/>
<path d="M189.972 93.8871C190.998 93.8871 191.829 93.0546 191.829 92.0277C191.829 91.0008 190.998 90.1683 189.972 90.1683C188.946 90.1683 188.115 91.0008 188.115 92.0277C188.115 93.0546 188.946 93.8871 189.972 93.8871Z" fill="#E6E6E6"/>
<path d="M160.374 193.669L164.638 193.669L166.666 177.203L160.374 177.204L160.374 193.669Z" fill="#FFB8B8"/>
<path d="M159.287 192.275L167.683 192.275H167.683C168.386 192.275 169.081 192.413 169.731 192.683C170.38 192.952 170.97 193.347 171.466 193.844C171.963 194.341 172.357 194.932 172.626 195.582C172.895 196.232 173.034 196.929 173.034 197.632V197.806L159.287 197.807L159.287 192.275Z" fill="#2F2E41"/>
<path d="M145.074 193.669L149.337 193.669L151.365 177.203L145.073 177.204L145.074 193.669Z" fill="#FFB8B8"/>
<path d="M143.987 192.275L152.382 192.275H152.383C153.085 192.275 153.781 192.413 154.43 192.683C155.079 192.952 155.669 193.347 156.166 193.844C156.663 194.341 157.057 194.932 157.326 195.582C157.595 196.232 157.733 196.929 157.733 197.632V197.806L143.987 197.807L143.987 192.275Z" fill="#2F2E41"/>
<path d="M149.352 188.631H149.351L145.726 188.63C145.321 188.631 144.93 188.474 144.639 188.192C144.347 187.91 144.176 187.525 144.163 187.12L144.049 183.944C143.132 158.546 142.185 132.285 148.054 120.481L148.1 120.388L167.531 119.684L171.432 155.516C171.599 157.045 171.538 158.59 171.252 160.1L166.095 187.311C166.025 187.68 165.825 188.011 165.532 188.245C165.238 188.479 164.871 188.599 164.496 188.584L160.424 188.452C160.211 188.444 160.001 188.392 159.809 188.299C159.617 188.207 159.445 188.076 159.305 187.915C159.165 187.754 159.059 187.565 158.994 187.362C158.929 187.158 158.907 186.944 158.928 186.731L162.127 161.564C162.236 160.478 162.137 159.381 161.837 158.331L157.858 144.406C157.825 144.29 157.754 144.19 157.656 144.121C157.558 144.053 157.439 144.02 157.32 144.028C157.201 144.037 157.088 144.086 157.001 144.168C156.913 144.249 156.857 144.359 156.84 144.477L150.902 187.28C150.849 187.654 150.663 187.996 150.378 188.244C150.094 188.492 149.73 188.63 149.352 188.631V188.631Z" fill="#2F2E41"/>
<path d="M151.676 83.859C156.393 83.859 160.217 80.0302 160.217 75.3071C160.217 70.584 156.393 66.7551 151.676 66.7551C146.959 66.7551 143.135 70.584 143.135 75.3071C143.135 80.0302 146.959 83.859 151.676 83.859Z" fill="#FFB8B8"/>
<path d="M166.621 122.329H148.948C148.723 122.329 148.501 122.28 148.297 122.187C148.093 122.093 147.911 121.957 147.764 121.787C147.617 121.617 147.508 121.417 147.446 121.201C147.383 120.985 147.367 120.758 147.399 120.535L148.272 114.548L143.145 100.427C142.616 98.9696 142.419 97.4118 142.57 95.868C142.72 94.3243 143.214 92.8338 144.014 91.506C144.815 90.1781 145.902 89.0466 147.197 88.1944C148.491 87.3422 149.959 86.7909 151.494 86.581V86.581C153.681 86.2756 155.908 86.6793 157.849 87.7328C159.79 88.7864 161.343 90.4346 162.281 92.436L163.407 94.8352L168.159 120.476C168.201 120.702 168.193 120.935 168.135 121.157C168.077 121.38 167.971 121.587 167.824 121.764C167.677 121.941 167.493 122.083 167.285 122.181C167.077 122.278 166.85 122.329 166.621 122.329H166.621Z" fill="#624185"/>
<path d="M129.313 137.348C129.845 137.225 130.344 136.986 130.773 136.648C131.203 136.311 131.554 135.883 131.801 135.395C132.047 134.907 132.184 134.371 132.202 133.825C132.22 133.278 132.117 132.735 131.902 132.232L145.673 101.078L137.795 99.0917L126.736 130.339C125.917 130.757 125.279 131.461 124.943 132.318C124.608 133.175 124.598 134.126 124.916 134.99C125.233 135.854 125.856 136.571 126.667 137.006C127.477 137.441 128.419 137.562 129.313 137.348H129.313Z" fill="#FFB8B8"/>
<path d="M143.809 106.65L136.147 103.059C135.929 102.957 135.736 102.809 135.58 102.625C135.424 102.441 135.31 102.226 135.245 101.994C135.18 101.762 135.165 101.519 135.203 101.28C135.24 101.042 135.328 100.815 135.461 100.614L140.117 93.5727C140.646 92.4596 141.594 91.6018 142.753 91.1872C143.913 90.7726 145.189 90.8351 146.302 91.3609C147.416 91.8868 148.275 92.8331 148.693 93.9926C149.111 95.1521 149.053 96.4301 148.532 97.5468L146.124 105.612C146.055 105.843 145.937 106.056 145.778 106.237C145.619 106.418 145.423 106.563 145.204 106.662C144.984 106.76 144.746 106.81 144.505 106.808C144.264 106.806 144.027 106.752 143.809 106.65H143.809Z" fill="#624185"/>
<path d="M186.759 57.1813C186.926 57.7022 186.976 58.2532 186.907 58.7956C186.837 59.338 186.65 59.8586 186.358 60.3207C186.066 60.7828 185.676 61.1751 185.216 61.4701C184.756 61.7651 184.238 61.9555 183.696 62.0279L164.025 89.8257L158.287 84.0678L179.427 58.5541C179.366 57.6355 179.643 56.7263 180.207 55.9987C180.77 55.2712 181.581 54.7759 182.484 54.6067C183.388 54.4375 184.323 54.6061 185.11 55.0806C185.898 55.5551 186.485 56.3026 186.759 57.1813V57.1813Z" fill="#FFB8B8"/>
<path d="M168.574 86.5628C168.602 86.8022 168.579 87.0448 168.504 87.2741C168.43 87.5034 168.308 87.714 168.145 87.8915L162.46 94.0925C161.769 95.1136 160.703 95.8189 159.494 96.0538C158.285 96.2886 157.032 96.0338 156.01 95.3452C154.989 94.6566 154.281 93.5905 154.044 92.3806C153.806 91.1706 154.057 89.9156 154.742 88.8908L158.397 81.2802C158.501 81.063 158.651 80.8708 158.837 80.7169C159.022 80.5629 159.238 80.4507 159.47 80.3879C159.703 80.3251 159.946 80.3132 160.183 80.353C160.421 80.3928 160.647 80.4834 160.846 80.6186L167.85 85.3691C168.049 85.5042 168.217 85.6807 168.342 85.8867C168.467 86.0928 168.546 86.3234 168.574 86.5628V86.5628Z" fill="#624185"/>
<path d="M162.898 71.7274C162.892 70.9535 162.785 70.1836 162.578 69.4377C161.202 64.3463 156.123 61.2905 151.025 62.0574C150.034 61.7728 149.007 61.6289 147.976 61.6299V61.6299C145.352 61.6299 142.815 62.5693 140.822 64.2785C138.83 65.9876 137.513 68.3539 137.11 70.9499L132.993 97.4936H155.248L158.841 74.33C158.975 73.4692 159.006 72.5956 158.935 71.7274H162.898Z" fill="#2F2E41"/>
<path d="M190.559 198H117.187C117.094 198 117.006 197.963 116.941 197.898C116.876 197.833 116.839 197.744 116.839 197.652C116.839 197.559 116.876 197.471 116.941 197.406C117.006 197.34 117.094 197.304 117.187 197.304H190.559C190.651 197.304 190.739 197.34 190.804 197.406C190.87 197.471 190.906 197.559 190.906 197.652C190.906 197.744 190.87 197.833 190.804 197.898C190.739 197.963 190.651 198 190.559 198Z" fill="#CCCCCC"/>
<path d="M264.477 27.0432C264.985 26.9942 265.499 27.0575 265.981 27.2286C266.462 27.3997 266.901 27.6746 267.265 28.0337C267.629 28.3929 267.91 28.8277 268.089 29.3074C268.267 29.7871 268.338 30.3002 268.297 30.8104L279.67 35.8226L274.245 39.3292L264.276 34.0319C263.425 33.9058 262.649 33.4714 262.096 32.811C261.543 32.1506 261.252 31.31 261.276 30.4485C261.301 29.5871 261.64 28.7646 262.23 28.137C262.82 27.5094 263.619 27.1202 264.477 27.0432V27.0432Z" fill="#A0616A"/>
<path d="M310.354 20.7907C315.071 20.7907 318.894 16.9619 318.894 12.2388C318.894 7.51566 315.071 3.68683 310.354 3.68683C305.637 3.68683 301.813 7.51566 301.813 12.2388C301.813 16.9619 305.637 20.7907 310.354 20.7907Z" fill="#A0616A"/>
<path d="M294.896 134.18L290.633 134.18L288.605 117.715L294.897 117.715L294.896 134.18Z" fill="#A0616A"/>
<path d="M295.983 138.318L282.237 138.318V138.144C282.237 137.44 282.376 136.743 282.645 136.093C282.913 135.443 283.308 134.853 283.804 134.355C284.301 133.858 284.891 133.463 285.54 133.194C286.189 132.925 286.885 132.786 287.588 132.786H287.588L295.984 132.787L295.983 138.318Z" fill="#2F2E41"/>
<path d="M312.631 134.18L308.367 134.18L306.339 117.715L312.631 117.715L312.631 134.18Z" fill="#A0616A"/>
<path d="M313.718 138.318L299.972 138.318V138.144C299.972 137.44 300.11 136.743 300.379 136.093C300.648 135.443 301.042 134.853 301.539 134.355C302.036 133.858 302.625 133.463 303.275 133.194C303.924 132.925 304.619 132.786 305.322 132.786H305.322L313.718 132.787L313.718 138.318Z" fill="#2F2E41"/>
<path d="M312.428 130.673C312.365 130.673 312.301 130.669 312.238 130.662L305.997 129.892C305.632 129.848 305.294 129.675 305.043 129.406C304.792 129.136 304.644 128.786 304.626 128.418L302.807 87.4134C302.801 87.297 302.756 87.1861 302.68 87.0982C302.603 87.0104 302.5 86.9506 302.386 86.9284C302.271 86.9063 302.153 86.923 302.049 86.9759C301.946 87.0289 301.863 87.115 301.814 87.2206L297.142 102.814L296.18 127.862C296.172 128.078 296.119 128.29 296.025 128.484C295.931 128.679 295.798 128.852 295.634 128.992C295.469 129.133 295.278 129.238 295.072 129.3C294.865 129.363 294.648 129.383 294.433 129.357L289.029 128.72C288.643 128.676 288.287 128.489 288.032 128.195C287.776 127.902 287.639 127.523 287.648 127.134L288.107 103.556L291.768 66.5464L291.931 66.5525L314.194 67.4118L313.994 129.112C313.992 129.526 313.827 129.924 313.533 130.216C313.24 130.509 312.843 130.673 312.429 130.673H312.428Z" fill="#2F2E41"/>
<path d="M313.35 70.7938C313.337 70.7938 313.323 70.7938 313.31 70.7934L290.888 70.2051C290.668 70.1994 290.452 70.1473 290.254 70.0524C290.056 69.9574 289.879 69.8216 289.737 69.6539C289.595 69.4862 289.489 69.2904 289.427 69.0791C289.366 68.8679 289.349 68.6459 289.379 68.4278L293.687 36.6758C293.956 34.5318 294.674 32.4688 295.793 30.6213C296.912 28.7739 298.408 27.1836 300.183 25.9542C301.744 24.8782 303.517 24.1491 305.383 23.8159C307.248 23.4828 309.164 23.5534 311 24.0229C318.826 26.0086 323.521 34.4234 321.466 42.7807L314.87 69.6016C314.785 69.9411 314.589 70.2425 314.314 70.4583C314.039 70.6742 313.7 70.7922 313.35 70.7938V70.7938Z" fill="#624185"/>
<path d="M283.936 45.5798C282.458 45.5816 281.012 45.1514 279.775 44.3421L266.7 35.7522C266.508 35.6265 266.347 35.4603 266.226 35.2653C266.106 35.0702 266.03 34.8512 266.004 34.6235C265.977 34.3959 266.001 34.1652 266.073 33.9477C266.145 33.7302 266.264 33.5312 266.422 33.3648L268.392 31.2825C268.606 31.0542 268.885 30.896 269.191 30.8285C269.497 30.761 269.816 30.7873 270.107 30.904L284.712 36.7278L298.242 27.0529C298.875 26.6005 299.594 26.2846 300.355 26.125C301.116 25.9655 301.902 25.9658 302.662 26.126C303.423 26.2862 304.142 26.6028 304.775 27.0557C305.407 27.5086 305.938 28.0879 306.336 28.7571C306.733 29.4263 306.987 30.1708 307.082 30.9434C307.177 31.716 307.11 32.4999 306.887 33.2455C306.664 33.9912 306.289 34.6823 305.785 35.2752C305.281 35.8681 304.66 36.3499 303.961 36.69L287.239 44.8229C286.209 45.3222 285.08 45.581 283.936 45.5798V45.5798Z" fill="#624185"/>
<path d="M313.313 20.4172C314.77 20.7617 316.528 21.026 317.569 19.9489C317.754 19.7456 317.919 19.5252 318.062 19.2908L319.423 17.2095C320.466 15.6152 321.527 13.9792 321.969 12.1253C322.222 11.06 322.262 9.95482 322.086 8.87402C321.909 7.79322 321.52 6.7583 320.941 5.82941C320.361 4.90051 319.603 4.09614 318.711 3.46302C317.818 2.8299 316.809 2.38065 315.742 2.14137C313.709 1.68566 311.72 0.901544 309.642 1.04457C307.564 1.1876 305.127 1.14065 303.383 0C303.491 0.50852 304.079 2.75538 304.079 2.75538C304.079 2.75538 301.457 5.1644 300.931 5.76509C301.619 5.45949 302.368 5.316 303.121 5.34565C303.873 5.3753 304.609 5.5773 305.271 5.93613C305.934 6.29495 306.505 6.80105 306.941 7.41553C307.378 8.03 307.668 8.73649 307.789 9.48071C307.938 10.395 307.85 11.409 308.393 12.1594C308.909 12.8731 309.834 13.1232 310.612 13.5353C311.733 14.1749 312.589 15.1946 313.026 16.4105C313.463 17.6264 313.451 18.9585 312.993 20.1665L313.313 20.4172Z" fill="#2F2E41"/>
<path d="M303.059 73.8566H232.264C231.374 73.8555 230.52 73.5011 229.891 72.871C229.262 72.2409 228.908 71.3866 228.907 70.4955V34.4403C228.908 33.5492 229.262 32.6949 229.891 32.0648C230.52 31.4347 231.374 31.0802 232.264 31.0792H303.059C303.949 31.0802 304.802 31.4347 305.431 32.0648C306.06 32.6949 306.414 33.5492 306.415 34.4403V70.4955C306.414 71.3866 306.06 72.2409 305.431 72.871C304.802 73.5011 303.949 73.8555 303.059 73.8566V73.8566Z" fill="#CCCCCC"/>
<path d="M302.245 71.4122H233.077C232.619 71.4116 232.179 71.2291 231.855 70.9045C231.531 70.5799 231.349 70.1398 231.348 69.6807V35.2551C231.349 34.7961 231.531 34.356 231.855 34.0314C232.179 33.7068 232.619 33.5242 233.077 33.5237H302.245C302.703 33.5242 303.143 33.7068 303.467 34.0314C303.791 34.356 303.974 34.7961 303.974 35.2551V69.6807C303.974 70.1398 303.791 70.5799 303.467 70.9045C303.143 71.2291 302.703 71.4116 302.245 71.4122V71.4122Z" fill="white"/>
<path d="M293.823 50.9242H258.833C258.401 50.9242 257.987 50.7525 257.682 50.4468C257.377 50.1412 257.205 49.7267 257.205 49.2945C257.205 48.8623 257.377 48.4478 257.682 48.1422C257.987 47.8366 258.401 47.6649 258.833 47.6649H293.823C294.255 47.6649 294.669 47.8366 294.974 48.1422C295.279 48.4478 295.451 48.8623 295.451 49.2945C295.451 49.7267 295.279 50.1412 294.974 50.4468C294.669 50.7525 294.255 50.9242 293.823 50.9242V50.9242Z" fill="#CCCCCC"/>
<path d="M282.431 43.9982H258.833C258.619 43.9986 258.407 43.9566 258.209 43.8749C258.011 43.7931 257.832 43.6731 257.68 43.5218C257.529 43.3704 257.409 43.1907 257.327 42.9928C257.245 42.7949 257.203 42.5828 257.203 42.3686C257.203 42.1544 257.245 41.9423 257.327 41.7445C257.409 41.5466 257.529 41.3668 257.68 41.2155C257.832 41.0641 258.011 40.9441 258.209 40.8624C258.407 40.7806 258.619 40.7387 258.833 40.739H282.431C282.863 40.739 283.277 40.9107 283.582 41.2163C283.887 41.5219 284.058 41.9364 284.058 42.3686C284.058 42.8008 283.887 43.2153 283.582 43.5209C283.277 43.8265 282.863 43.9982 282.431 43.9982Z" fill="#CCCCCC"/>
<path d="M244.348 50.9241C247.157 50.9241 249.434 48.6441 249.434 45.8316C249.434 43.019 247.157 40.739 244.348 40.739C241.539 40.739 239.262 43.019 239.262 45.8316C239.262 48.6441 241.539 50.9241 244.348 50.9241Z" fill="#FFA345"/>
<path d="M283.04 64.1968C283.939 64.1968 284.668 63.4672 284.668 62.5672C284.668 61.6672 283.939 60.9376 283.04 60.9376C282.141 60.9376 281.413 61.6672 281.413 62.5672C281.413 63.4672 282.141 64.1968 283.04 64.1968Z" fill="#E6E6E6"/>
<path d="M288.736 64.1968C289.635 64.1968 290.364 63.4672 290.364 62.5672C290.364 61.6672 289.635 60.9376 288.736 60.9376C287.838 60.9376 287.109 61.6672 287.109 62.5672C287.109 63.4672 287.838 64.1968 288.736 64.1968Z" fill="#E6E6E6"/>
<path d="M294.433 64.1968C295.331 64.1968 296.06 63.4672 296.06 62.5672C296.06 61.6672 295.331 60.9376 294.433 60.9376C293.534 60.9376 292.805 61.6672 292.805 62.5672C292.805 63.4672 293.534 64.1968 294.433 64.1968Z" fill="#E6E6E6"/>
<path d="M301.962 69.5688C302.019 69.06 302.186 68.5698 302.451 68.1326C302.717 67.6954 303.076 67.3219 303.501 67.0384C303.927 66.7549 304.409 66.5683 304.915 66.4918C305.42 66.4152 305.936 66.4505 306.427 66.5953L313.654 56.4736L315.972 62.5086L308.753 71.1951C308.456 72.0038 307.872 72.6751 307.114 73.0819C306.355 73.4887 305.473 73.6027 304.636 73.4022C303.799 73.2017 303.065 72.7008 302.572 71.9942C302.079 71.2877 301.862 70.4247 301.962 69.5688H301.962Z" fill="#A0616A"/>
<path d="M310.241 69.0226C310.127 69.0321 310.013 69.0293 309.9 69.014C309.673 68.9837 309.455 68.9037 309.263 68.7797C309.07 68.6557 308.907 68.4909 308.785 68.2968L307.258 65.8705C307.09 65.6056 307.006 65.2961 307.016 64.9825C307.027 64.669 307.131 64.3658 307.316 64.1127L316.567 51.3851L310.554 35.8642C310.017 34.4985 310.038 32.9763 310.611 31.6255C311.184 30.2747 312.265 29.2035 313.619 28.6429V28.6429C314.385 28.3214 315.212 28.1738 316.041 28.2107C316.87 28.2475 317.681 28.4679 318.415 28.856C319.149 29.2441 319.788 29.7902 320.286 30.4551C320.784 31.12 321.128 31.8871 321.295 32.7013L325.025 50.9372C325.285 52.2233 325.208 53.5546 324.803 54.8024C324.398 56.0501 323.678 57.172 322.713 58.0593L311.164 68.6183C310.91 68.8517 310.585 68.9938 310.241 69.0226V69.0226Z" fill="#624185"/>
<path d="M329.652 139.156H256.28C256.188 139.156 256.1 139.119 256.034 139.054C255.969 138.988 255.933 138.9 255.933 138.807C255.933 138.715 255.969 138.627 256.034 138.561C256.1 138.496 256.188 138.459 256.28 138.459H329.652C329.745 138.459 329.833 138.496 329.898 138.561C329.963 138.627 330 138.715 330 138.807C330 138.9 329.963 138.988 329.898 139.054C329.833 139.119 329.745 139.156 329.652 139.156Z" fill="#CCCCCC"/>
<path d="M89.2348 52.499H18.4397C17.5497 52.498 16.6965 52.1436 16.0673 51.5135C15.438 50.8833 15.084 50.029 15.083 49.1379V13.0828C15.084 12.1917 15.438 11.3373 16.0673 10.7072C16.6965 10.0771 17.5497 9.72268 18.4397 9.72168H89.2348C90.1247 9.72269 90.9779 10.0771 91.6072 10.7072C92.2365 11.3373 92.5904 12.1917 92.5914 13.0828V49.1379C92.5904 50.029 92.2364 50.8833 91.6072 51.5135C90.9779 52.1436 90.1247 52.498 89.2348 52.499V52.499Z" fill="#CCCCCC"/>
<path d="M88.4211 50.0545H19.2535C18.795 50.054 18.3555 49.8714 18.0313 49.5468C17.7071 49.2222 17.5248 48.7821 17.5243 48.3231V13.8975C17.5248 13.4385 17.7071 12.9984 18.0313 12.6738C18.3555 12.3492 18.795 12.1666 19.2535 12.1661H88.4211C88.8795 12.1666 89.3191 12.3492 89.6432 12.6738C89.9674 12.9984 90.1498 13.4385 90.1503 13.8975V48.3231C90.1498 48.7821 89.9674 49.2222 89.6432 49.5468C89.3191 49.8714 88.8795 50.054 88.4211 50.0545Z" fill="white"/>
<path d="M79.9995 29.5666H45.0088C44.5772 29.5666 44.1632 29.3949 43.858 29.0893C43.5528 28.7837 43.3813 28.3692 43.3813 27.937C43.3813 27.5048 43.5528 27.0903 43.858 26.7847C44.1632 26.4791 44.5772 26.3074 45.0088 26.3074H79.9995C80.4311 26.3074 80.8451 26.4791 81.1503 26.7847C81.4555 27.0903 81.627 27.5048 81.627 27.937C81.627 28.3692 81.4555 28.7837 81.1503 29.0893C80.8451 29.3949 80.4311 29.5666 79.9995 29.5666V29.5666Z" fill="#CCCCCC"/>
<path d="M68.6072 22.6407H45.0088C44.5772 22.6407 44.1632 22.469 43.858 22.1634C43.5528 21.8578 43.3813 21.4433 43.3813 21.0111C43.3813 20.5789 43.5528 20.1644 43.858 19.8588C44.1632 19.5532 44.5772 19.3815 45.0088 19.3815H68.6072C69.0388 19.3815 69.4528 19.5532 69.758 19.8588C70.0632 20.1644 70.2347 20.5789 70.2347 21.0111C70.2347 21.4433 70.0632 21.8578 69.758 22.1634C69.4528 22.469 69.0388 22.6407 68.6072 22.6407V22.6407Z" fill="#CCCCCC"/>
<path d="M30.5242 29.5665C33.333 29.5665 35.6101 27.2865 35.6101 24.474C35.6101 21.6615 33.333 19.3815 30.5242 19.3815C27.7154 19.3815 25.4384 21.6615 25.4384 24.474C25.4384 27.2865 27.7154 29.5665 30.5242 29.5665Z" fill="#FFA345"/>
<path d="M69.2163 42.8392C70.1152 42.8392 70.8438 42.1096 70.8438 41.2096C70.8438 40.3096 70.1152 39.58 69.2163 39.58C68.3175 39.58 67.5889 40.3096 67.5889 41.2096C67.5889 42.1096 68.3175 42.8392 69.2163 42.8392Z" fill="#E6E6E6"/>
<path d="M74.9125 42.8392C75.8113 42.8392 76.54 42.1096 76.54 41.2096C76.54 40.3096 75.8113 39.58 74.9125 39.58C74.0137 39.58 73.285 40.3096 73.285 41.2096C73.285 42.1096 74.0137 42.8392 74.9125 42.8392Z" fill="#E6E6E6"/>
<path d="M80.6087 42.8392C81.5075 42.8392 82.2361 42.1096 82.2361 41.2096C82.2361 40.3096 81.5075 39.58 80.6087 39.58C79.7098 39.58 78.9812 40.3096 78.9812 41.2096C78.9812 42.1096 79.7098 42.8392 80.6087 42.8392Z" fill="#E6E6E6"/>
<path d="M86.2987 6.25749C85.8178 6.43087 85.3806 6.70774 85.018 7.0686C84.6555 7.42946 84.3763 7.86552 84.2003 8.34609C84.0242 8.82665 83.9556 9.34002 83.9991 9.85003C84.0426 10.36 84.1973 10.8543 84.4523 11.298L76.3082 20.6957L82.7096 21.5449L89.4619 12.4904C90.1779 12.0122 90.6938 11.2876 90.9119 10.4539C91.1299 9.62024 91.035 8.73543 90.6451 7.96714C90.2552 7.19886 89.5974 6.60047 88.7964 6.28537C87.9953 5.97027 87.1066 5.96036 86.2987 6.25749V6.25749Z" fill="#FFB8B8"/>
<path d="M31.9213 10.0199C32.095 10.5013 32.1612 11.015 32.1152 11.5248C32.0692 12.0346 31.9121 12.5281 31.655 12.9705C31.398 13.4129 31.0471 13.7935 30.6272 14.0855C30.2074 14.3775 29.7287 14.5737 29.2248 14.6604L27.1982 26.9364L22.4595 22.5441L25.1105 11.56C25.0212 10.7029 25.2489 9.8427 25.7506 9.14248C26.2524 8.44226 26.9932 7.95065 27.8327 7.7608C28.6722 7.57096 29.5521 7.69606 30.3057 8.11242C31.0593 8.52878 31.6341 9.20746 31.9213 10.0199V10.0199Z" fill="#FFB8B8"/>
<path d="M44.6488 134.18L48.912 134.18L50.94 117.715L44.6481 117.715L44.6488 134.18Z" fill="#FFB8B8"/>
<path d="M43.5613 132.787L51.9569 132.786H51.9573C52.6599 132.786 53.3556 132.925 54.0048 133.194C54.6539 133.463 55.2437 133.858 55.7406 134.355C56.2374 134.853 56.6315 135.443 56.9004 136.093C57.1693 136.743 57.3077 137.44 57.3077 138.144V138.318L43.5615 138.318L43.5613 132.787Z" fill="#2F2E41"/>
<path d="M22.7415 134.18L27.0048 134.18L29.0327 117.715L22.7408 117.715L22.7415 134.18Z" fill="#FFB8B8"/>
<path d="M21.6541 132.787L30.0497 132.786H30.05C30.7527 132.786 31.4484 132.925 32.0975 133.194C32.7467 133.463 33.3365 133.858 33.8334 134.355C34.3302 134.853 34.7243 135.443 34.9932 136.093C35.2621 136.743 35.4004 137.44 35.4004 138.144V138.318L21.6543 138.318L21.6541 132.787Z" fill="#2F2E41"/>
<path d="M43.7587 21.7648C48.4756 21.7648 52.2995 17.9359 52.2995 13.2128C52.2995 8.48972 48.4756 4.66089 43.7587 4.66089C39.0418 4.66089 35.218 8.48972 35.218 13.2128C35.218 17.9359 39.0418 21.7648 43.7587 21.7648Z" fill="#FFB8B8"/>
<path d="M42.735 128.711L42.0288 83.6524C42.027 83.525 41.9788 83.4027 41.8932 83.3084C41.8076 83.2142 41.6906 83.1545 41.5641 83.1406C41.4376 83.1268 41.3105 83.1597 41.2065 83.2331C41.1026 83.3066 41.0291 83.4155 40.9998 83.5395L29.4234 127.612C29.3362 127.965 29.1309 128.277 28.8415 128.496C28.5522 128.715 28.1965 128.829 27.8339 128.817L21.4738 128.544C21.2576 128.535 21.0456 128.481 20.8514 128.385C20.6571 128.29 20.4847 128.155 20.3451 127.989C20.2055 127.824 20.1017 127.631 20.0403 127.423C19.9789 127.215 19.9612 126.997 19.9883 126.782L29.8113 70.146L29.8315 69.9862L57.1919 71.2824L57.3704 71.2906L51.5033 128.805C51.4725 129.198 51.2949 129.566 51.0059 129.835C50.7168 130.104 50.3373 130.254 49.9429 130.255H44.2996C43.8889 130.254 43.4952 130.091 43.2028 129.802C42.9103 129.514 42.7424 129.122 42.735 128.711V128.711Z" fill="#2F2E41"/>
<path d="M64.3449 75.0993L24.6414 71.8367C24.4017 71.817 24.1698 71.7423 23.9637 71.6184C23.7576 71.4944 23.5827 71.3246 23.4528 71.122C23.3228 70.9194 23.2412 70.6896 23.2144 70.4503C23.1875 70.2111 23.2161 69.9688 23.2979 69.7424L29.5504 52.4332L29.9102 31.8889C29.9232 31.1431 30.084 30.4073 30.3833 29.7243C30.6825 29.0412 31.1142 28.4244 31.6534 27.9097C32.1925 27.395 32.8284 26.9926 33.524 26.7259C34.2197 26.4592 34.9613 26.3334 35.7059 26.3559L38.3462 23.9594H48.0201L48.8624 25.0651L55.5935 26.1009C56.7925 26.2904 57.8988 26.8609 58.7491 27.7282C59.5994 28.5955 60.1487 29.7136 60.3158 30.9174L66.0236 73.3287C66.0534 73.55 66.0355 73.775 65.9713 73.9888C65.9071 74.2026 65.7981 74.4002 65.6514 74.5684C65.5048 74.7365 65.324 74.8714 65.121 74.9639C64.9181 75.0564 64.6978 75.1044 64.4749 75.1047C64.4317 75.1047 64.3884 75.103 64.3449 75.0993Z" fill="#624185"/>
<path d="M56.6093 28.0924L73.5382 23.1259L81.1997 13.0256C81.4107 12.7474 81.7084 12.5478 82.0456 12.4585C82.3828 12.3691 82.7402 12.3952 83.0609 12.5326L87.8445 14.5799C88.0484 14.6672 88.2315 14.7969 88.3816 14.9604C88.5317 15.1239 88.6453 15.3175 88.715 15.5283C88.7847 15.7392 88.8088 15.9624 88.7858 16.1833C88.7627 16.4042 88.6931 16.6176 88.5814 16.8095L82.8557 26.6479C81.9234 28.2573 80.5043 29.5282 78.8033 30.2771L58.8916 39.0907L56.6093 28.0924Z" fill="#624185"/>
<path d="M24.1303 35.5217C23.1186 34.7919 22.3118 33.8134 21.7878 32.6805C21.2637 31.5476 21.0401 30.2986 21.1385 29.054L21.8814 19.1975C21.912 18.8038 22.0896 18.4362 22.3788 18.1677C22.668 17.8992 23.0475 17.7496 23.4419 17.7487H23.4557L29.0653 17.7986C29.2951 17.8007 29.5216 17.8535 29.7288 17.9531C29.9359 18.0528 30.1186 18.1969 30.2639 18.3752C30.4091 18.5535 30.5134 18.7617 30.5692 18.9849C30.6251 19.2081 30.6311 19.4409 30.587 19.6668L29.5462 24.9842L36.9738 28.1267L30.7191 40.3111L24.1303 35.5217Z" fill="#624185"/>
<path d="M48.7273 2.95827C48.7273 2.95827 39.7957 -1.85729 34.9274 3.8261C30.0592 9.50949 36.7822 18.3971 36.7822 18.3971L46.3616 19.6068C46.3616 19.6068 46.7093 13.0864 48.9901 13.213C51.2709 13.3396 58.3543 5.11183 48.7273 2.95827Z" fill="#2F2E41"/>
<path d="M73.7197 138.807H0.347734C0.25551 138.807 0.167062 138.771 0.101849 138.705C0.0366359 138.64 0 138.552 0 138.459C0 138.367 0.0366359 138.278 0.101849 138.213C0.167062 138.148 0.25551 138.111 0.347734 138.111H73.7197C73.8119 138.111 73.9004 138.148 73.9656 138.213C74.0308 138.278 74.0674 138.367 74.0674 138.459C74.0674 138.552 74.0308 138.64 73.9656 138.705C73.9004 138.771 73.8119 138.807 73.7197 138.807Z" fill="#CCCCCC"/>
</g>
<defs>
<clipPath id="clip0">
<rect width="330" height="198" fill="white"/>
</clipPath>
</defs>
</svg>
