<svg width="93" height="86" viewBox="0 0 93 86" fill="none" xmlns="http://www.w3.org/2000/svg">
<path d="M12.4453 75.3945L14.1094 67.3203H17.3789L14.1445 80H11.3086L8.90625 72.0195L6.50391 80H3.67969L0.445312 67.3203H3.71484L5.36719 75.3828L7.6875 67.3203H10.1367L12.4453 75.3945ZM22.3711 68.7031C23.2695 67.625 24.3984 67.0859 25.7578 67.0859C28.5078 67.0859 29.9023 68.6836 29.9414 71.8789V80H26.5547V71.9727C26.5547 71.2461 26.3984 70.7109 26.0859 70.3672C25.7734 70.0156 25.2539 69.8398 24.5273 69.8398C23.5352 69.8398 22.8164 70.2227 22.3711 70.9883V80H18.9844V62H22.3711V68.7031ZM38.332 80.2344C36.4727 80.2344 34.957 79.6641 33.7852 78.5234C32.6211 77.3828 32.0391 75.8633 32.0391 73.9648V73.6367C32.0391 72.3633 32.2852 71.2266 32.7773 70.2266C33.2695 69.2188 33.9648 68.4453 34.8633 67.9062C35.7695 67.3594 36.8008 67.0859 37.957 67.0859C39.6914 67.0859 41.0547 67.6328 42.0469 68.7266C43.0469 69.8203 43.5469 71.3711 43.5469 73.3789V74.7617H35.4727C35.582 75.5898 35.9102 76.2539 36.457 76.7539C37.0117 77.2539 37.7109 77.5039 38.5547 77.5039C39.8594 77.5039 40.8789 77.0312 41.6133 76.0859L43.2773 77.9492C42.7695 78.668 42.082 79.2305 41.2148 79.6367C40.3477 80.0352 39.3867 80.2344 38.332 80.2344ZM37.9453 69.8281C37.2734 69.8281 36.7266 70.0547 36.3047 70.5078C35.8906 70.9609 35.625 71.6094 35.5078 72.4531H40.2188V72.1836C40.2031 71.4336 40 70.8555 39.6094 70.4492C39.2188 70.0352 38.6641 69.8281 37.9453 69.8281ZM52.6055 70.4961C52.1445 70.4336 51.7383 70.4023 51.3867 70.4023C50.1055 70.4023 49.2656 70.8359 48.8672 71.7031V80H45.4805V67.3203H48.6797L48.7734 68.832C49.4531 67.668 50.3945 67.0859 51.5977 67.0859C51.9727 67.0859 52.3242 67.1367 52.6523 67.2383L52.6055 70.4961ZM59.8477 80.2344C57.9883 80.2344 56.4727 79.6641 55.3008 78.5234C54.1367 77.3828 53.5547 75.8633 53.5547 73.9648V73.6367C53.5547 72.3633 53.8008 71.2266 54.293 70.2266C54.7852 69.2188 55.4805 68.4453 56.3789 67.9062C57.2852 67.3594 58.3164 67.0859 59.4727 67.0859C61.207 67.0859 62.5703 67.6328 63.5625 68.7266C64.5625 69.8203 65.0625 71.3711 65.0625 73.3789V74.7617H56.9883C57.0977 75.5898 57.4258 76.2539 57.9727 76.7539C58.5273 77.2539 59.2266 77.5039 60.0703 77.5039C61.375 77.5039 62.3945 77.0312 63.1289 76.0859L64.793 77.9492C64.2852 78.668 63.5977 79.2305 62.7305 79.6367C61.8633 80.0352 60.9023 80.2344 59.8477 80.2344ZM59.4609 69.8281C58.7891 69.8281 58.2422 70.0547 57.8203 70.5078C57.4062 70.9609 57.1406 71.6094 57.0234 72.4531H61.7344V72.1836C61.7188 71.4336 61.5156 70.8555 61.125 70.4492C60.7344 70.0352 60.1797 69.8281 59.4609 69.8281ZM77.0273 64.2031V67.3203H79.1953V69.8047H77.0273V76.1328C77.0273 76.6016 77.1172 76.9375 77.2969 77.1406C77.4766 77.3438 77.8203 77.4453 78.3281 77.4453C78.7031 77.4453 79.0352 77.418 79.3242 77.3633V79.9297C78.6602 80.1328 77.9766 80.2344 77.2734 80.2344C74.8984 80.2344 73.6875 79.0352 73.6406 76.6367V69.8047H71.7891V67.3203H73.6406V64.2031H77.0273ZM80.2031 73.543C80.2031 72.2852 80.4453 71.1641 80.9297 70.1797C81.4141 69.1953 82.1094 68.4336 83.0156 67.8945C83.9297 67.3555 84.9883 67.0859 86.1914 67.0859C87.9023 67.0859 89.2969 67.6094 90.375 68.6562C91.4609 69.7031 92.0664 71.125 92.1914 72.9219L92.2148 73.7891C92.2148 75.7344 91.6719 77.2969 90.5859 78.4766C89.5 79.6484 88.043 80.2344 86.2148 80.2344C84.3867 80.2344 82.9258 79.6484 81.832 78.4766C80.7461 77.3047 80.2031 75.7109 80.2031 73.6953V73.543ZM83.5898 73.7891C83.5898 74.9922 83.8164 75.9141 84.2695 76.5547C84.7227 77.1875 85.3711 77.5039 86.2148 77.5039C87.0352 77.5039 87.6758 77.1914 88.1367 76.5664C88.5977 75.9336 88.8281 74.9258 88.8281 73.543C88.8281 72.3633 88.5977 71.4492 88.1367 70.8008C87.6758 70.1523 87.0273 69.8281 86.1914 69.8281C85.3633 69.8281 84.7227 70.1523 84.2695 70.8008C83.8164 71.4414 83.5898 72.4375 83.5898 73.7891Z" fill="#624185"/>
<path d="M64.6161 7.38386C62.3069 5.05176 59.5596 3.19891 56.5321 1.93177C53.5046 0.664621 50.2566 0.00815321 46.9746 7.54657e-05C43.6926 -0.00800228 40.4414 0.632469 37.4077 1.8847C34.374 3.13692 31.6176 4.97622 29.2969 7.29693C26.9762 9.61764 25.1369 12.374 23.8847 15.4077C22.6325 18.4414 21.992 21.6926 22.0001 24.9746C22.0082 28.2566 22.6646 31.5046 23.9318 34.5321C25.1989 37.5596 27.0518 40.3069 29.3839 42.6161C31.6931 44.9482 34.4404 46.8011 37.4679 48.0682C40.4954 49.3354 43.7434 49.9918 47.0254 49.9999C50.3074 50.008 53.5586 49.3675 56.5923 48.1153C59.626 46.8631 62.3824 45.0238 64.7031 42.7031C67.0238 40.3824 68.8631 37.626 70.1153 34.5923C71.3675 31.5586 72.008 28.3074 71.9999 25.0254C71.9918 21.7434 71.3354 18.4954 70.0682 15.4679C68.8011 12.4404 66.9482 9.69312 64.6161 7.38386ZM25.6458 25C25.645 23.11 25.8955 21.2284 26.3909 19.4045C27.2073 21.1618 28.3929 22.6799 29.1992 24.4828C30.2414 26.8006 33.0397 26.1578 34.2753 28.1887C35.3719 29.9915 34.2008 32.2716 35.0216 34.1579C35.6177 35.527 37.0236 35.8262 37.9934 36.8271C38.9844 37.837 38.9632 39.2206 39.1145 40.5374C39.2852 42.0846 39.562 43.6183 39.9431 45.1275C39.9431 45.1386 39.9431 45.1508 39.952 45.162C31.6294 42.2391 25.6458 34.3058 25.6458 25ZM47 46.3542C45.8074 46.3539 44.617 46.2542 43.441 46.0562C43.4532 45.7548 43.4588 45.4734 43.4888 45.2776C43.759 43.5092 44.6444 41.7798 45.8389 40.4562C47.0189 39.1505 48.636 38.2674 49.6326 36.786C50.6091 35.3401 50.9016 33.3938 50.499 31.7043C49.9062 29.2086 46.5151 28.3755 44.6866 27.022C43.6356 26.2434 42.7002 25.04 41.32 24.9422C40.6838 24.8977 40.1511 25.0345 39.5205 24.8721C38.9421 24.7219 38.4883 24.4105 37.8722 24.4917C36.721 24.643 35.9948 25.8731 34.758 25.7062C33.5846 25.5494 32.3757 24.1759 32.1088 23.0581C31.7662 21.6211 32.9029 21.1551 34.1207 21.0272C34.629 20.9738 35.1996 20.916 35.6878 21.1028C36.3307 21.3409 36.6343 21.9704 37.2115 22.2885C38.2937 22.8824 38.5128 21.9337 38.3471 20.9727C38.0991 19.5335 37.8099 18.9474 39.0934 17.9564C39.9831 17.2735 40.7439 16.7797 40.6015 15.553C40.517 14.8323 40.1222 14.5064 40.4903 13.789C40.7695 13.2429 41.5358 12.7502 42.0351 12.4244C43.3242 11.5835 47.5572 11.6458 45.8277 9.2924C45.3195 8.60172 44.3819 7.36718 43.4921 7.19812C42.3799 6.98792 41.8861 8.22913 41.1109 8.77634C40.3101 9.34245 38.7508 9.9853 37.9489 9.11C36.8701 7.93218 38.6641 7.54624 39.0611 6.72321C39.2446 6.33951 39.0611 5.80676 38.7519 5.30516C39.1531 5.1361 39.5609 4.97928 39.9753 4.8347C40.2351 5.02655 40.5432 5.14211 40.8651 5.16836C41.6092 5.2173 42.311 4.81468 42.9605 5.32184C43.6812 5.87794 44.2006 6.58085 45.1571 6.75436C46.0824 6.9223 47.0623 6.38288 47.2914 5.43529C47.4304 4.85917 47.2914 4.25079 47.1579 3.65577C51.3176 3.6797 55.3785 4.92544 58.836 7.23816C58.6136 7.15364 58.3478 7.16365 58.0197 7.31602C57.3446 7.62966 56.3881 8.42822 56.3091 9.2201C56.219 10.1188 57.5448 10.2456 58.1743 10.2456C59.1196 10.2456 60.0773 9.82292 59.7725 8.73074C59.6402 8.25694 59.46 7.76423 59.1697 7.46616C59.8675 7.95037 60.536 8.47551 61.1717 9.03882C61.1616 9.04883 61.1516 9.05772 61.1416 9.06884C60.501 9.73616 59.7569 10.2645 59.3187 11.0764C59.0095 11.648 58.6614 11.9194 58.0353 12.0673C57.6905 12.1485 57.2968 12.1786 57.0076 12.4099C56.2023 13.0438 56.6606 14.5676 57.4235 15.0247C58.3878 15.6019 59.8181 15.3305 60.5455 14.5064C61.1138 13.8613 61.4486 12.7413 62.4707 12.7424C62.9207 12.7415 63.353 12.9177 63.6741 13.2329C64.0967 13.6711 64.0133 14.0804 64.1034 14.6276C64.2625 15.5997 65.12 15.0725 65.6416 14.582C66.0218 15.2587 66.3649 15.9556 66.6693 16.6696C66.0954 17.496 65.6394 18.3969 64.2591 17.4337C63.4328 16.8565 62.9245 16.019 61.8868 15.7587C60.9804 15.5363 60.0517 15.7676 59.1563 15.9222C58.1387 16.0991 56.9319 16.1769 56.1601 16.9477C55.4138 17.6906 55.019 18.6849 54.2249 19.4312C52.6889 20.8771 52.0405 22.4553 53.0348 24.4995C53.9913 26.4648 55.9921 27.5314 58.1509 27.3912C60.2719 27.25 62.4752 26.0199 62.414 29.1018C62.3917 30.1929 62.6197 30.948 62.9545 31.9613C63.2648 32.8955 63.2437 33.8008 63.3149 34.7651C63.3825 35.8943 63.5591 37.0143 63.842 38.1095C61.8485 40.6762 59.2948 42.7534 56.3758 44.1823C53.4569 45.6112 50.2499 46.3541 47 46.3542Z" fill="#FFA345"/>
</svg>
