<svg viewBox="0 0 38 66" fill="none" xmlns="http://www.w3.org/2000/svg">
<path fill-rule="evenodd" clip-rule="evenodd" d="M15.5082 40.5835C12.4362 37.0137 10.3571 32.6389 10.7045 27.7368C11.7056 13.6125 31.5657 16.7196 35.4289 23.8484C39.2921 30.9771 38.8331 49.0598 33.8402 50.3339C31.8491 50.842 27.6073 49.5973 23.2902 47.0212L26 66H10L15.5082 40.5835Z" fill="#B28B67"/>
<path fill-rule="evenodd" clip-rule="evenodd" d="M29.1085 16.0842C26.9222 15.4242 23.7484 15.2004 22.4133 15.3518C23.1728 13.5504 23.4742 11.5434 23.2285 9.5892C22.9897 7.69036 22.1327 6.07356 21.34 4.37935C20.9747 3.59843 20.5606 2.82176 19.9433 2.22445C19.3144 1.61591 18.5184 1.21422 17.6836 1.02258C16.8294 0.82642 15.9362 0.842754 15.0806 1.02077C14.7021 1.09951 14.3625 1.27083 13.9913 1.36606C13.6112 1.46364 13.4268 1.22811 13.1509 0.991404C12.486 0.421063 11.5113 0.13951 10.6701 0.0387423C9.72638 -0.074262 8.74711 0.0666741 7.84704 0.373818C6.97096 0.672822 6.12933 1.15836 5.49593 1.8657C5.2139 2.18056 4.95791 2.53893 4.79153 2.93461C4.7233 3.09699 4.71202 3.19318 4.54835 3.25266C4.39698 3.30773 4.21993 3.30932 4.06371 3.36173C2.55316 3.86822 1.26165 5.0237 0.558426 6.50728C0.148149 7.37279 -0.0461938 8.89666 0.00703651 10.6047C0.0602667 12.3127 1.61808 16.7693 3.0751 18.3949C4.37564 19.8459 6.28729 20.8034 8.13218 21.2225C6.90763 22.6082 6.09248 24.3398 5.4897 26.1008C4.83496 28.0137 4.42974 30.0014 4.2801 32.0266C4.13797 33.9507 4.1248 35.9855 4.58045 37.8686C5.0067 39.6296 5.91825 41.0742 7.43998 41.9907C8.13702 42.4105 8.887 42.7259 9.6413 43.0142C10.3847 43.2982 11.1303 43.5744 11.909 43.7338C13.3828 44.0354 15.0809 43.9836 16.2161 42.8223C16.6253 42.4036 17.0753 41.8776 17.3738 41.3661C17.4811 41.1822 17.5458 41.0619 17.4154 40.8821C17.2592 40.6668 17.0065 40.5018 16.8059 40.3334C15.6615 39.373 14.9531 38.0909 14.7745 36.5673C14.5934 35.0213 15.0128 33.0259 16.531 32.3513C18.4051 31.5184 20.469 32.4744 22.1347 33.3655C22.8426 30.8919 24.2962 28.6648 26.5751 27.5302C29.0963 26.2749 31.9893 26.128 34.5803 25.051C35.2554 24.7704 35.9431 24.4518 36.4402 23.88C36.6479 23.641 36.8916 23.331 36.9745 23.0149C37.0835 22.5997 36.813 22.2516 36.604 21.9279C35.4962 20.2116 31.2948 16.7442 29.1085 16.0842Z" fill="#191847"/>
</svg>
