<svg width="126" height="195" viewBox="0 0 126 195" fill="none" xmlns="http://www.w3.org/2000/svg">
<path fill-rule="evenodd" clip-rule="evenodd" d="M43.4862 81.8405C44.3418 93.473 99.461 127.721 99.7826 128.682C99.9256 129.109 94.2067 142.609 82.6261 169.182L87.4443 171.047C105.207 142.904 113.632 127.333 112.72 124.335C111.414 120.041 97.1581 105.918 69.9534 81.9645L43.4862 81.8405Z" fill="#B28B67"/>
<path fill-rule="evenodd" clip-rule="evenodd" d="M83.8942 163.18L91.7607 166.033C108.349 147.389 114.85 132.006 113.665 124.169C112.875 118.944 98.6683 104.844 71.0461 81.869L42.9223 81.869C43.8818 108.808 94.9705 128.784 95.6538 129.932C96.3371 131.08 89.6123 142.323 83.8942 163.18Z" fill="#2F3676"/>
<path fill-rule="evenodd" clip-rule="evenodd" d="M80.8409 168.292C79.8574 169.442 79.2453 170.347 79.0047 171.008C78.712 171.813 78.4189 173.035 78.1253 174.675C79.0581 175.014 87.4413 178.065 103.275 183.828C104.715 181.906 104.762 180.602 103.417 179.917C102.071 179.232 100.958 178.651 100.077 178.173L90.2848 168.708C90.0964 168.526 89.796 168.531 89.6138 168.719C89.6107 168.722 89.6076 168.726 89.6046 168.729L88.1899 170.278C86.665 170.412 85.4951 170.33 84.6801 170.034C84.018 169.793 83.2009 169.192 82.2289 168.233L82.2289 168.233C81.8559 167.865 81.255 167.869 80.8868 168.242C80.8709 168.258 80.8556 168.274 80.8409 168.292Z" fill="#E4E4E4"/>
<path fill-rule="evenodd" clip-rule="evenodd" d="M49.8239 81.8405L25.2697 140.56L1.13684 190.203H6.83057L69.1241 81.8405H49.8239Z" fill="#997659"/>
<path fill-rule="evenodd" clip-rule="evenodd" d="M0.796296 187.958C0.265432 189.375 0 190.435 0 191.139C0 191.994 0.14255 193.243 0.427652 194.885C1.4203 194.885 10.3414 194.885 27.1911 194.885C27.8865 192.585 27.4851 191.344 25.9866 191.161C24.4882 190.977 23.2434 190.812 22.2523 190.664L9.81293 185.119C9.57357 185.012 9.29303 185.119 9.18632 185.359C9.1845 185.363 9.18273 185.367 9.18102 185.371L8.38143 187.311C6.99427 187.958 5.86706 188.282 4.99979 188.282C4.29516 188.282 3.32206 187.997 2.08049 187.428L2.0805 187.428C1.60404 187.209 1.04073 187.419 0.822313 187.895C0.812899 187.916 0.804221 187.936 0.796296 187.958Z" fill="#E4E4E4"/>
<path fill-rule="evenodd" clip-rule="evenodd" d="M3.31616 179.89L15.9677 182.254C25.7498 167.928 66.6885 109.186 71.177 81.8405H43.0118C28.0223 101.609 12.6406 165.327 3.31616 179.89Z" fill="#5C63AB"/>
<path fill-rule="evenodd" clip-rule="evenodd" d="M58.6084 24.7008C57.1022 21.7036 56.4205 18.3207 57.5055 14.9911C60.6318 5.39748 73.8121 10.9656 75.2512 16.5599C76.6902 22.1541 73.2559 34.578 69.5881 34.5992C68.1253 34.6076 65.4104 33.0166 62.873 30.4921L61.4727 44.0812L50.4226 41.3261L58.6084 24.7008Z" fill="#B28B67"/>
<path fill-rule="evenodd" clip-rule="evenodd" d="M75.7425 19.0331C75.7924 18.3669 75.7018 17.5907 75.6366 16.9324C75.5526 16.0838 75.3067 15.2762 75.0083 14.4985C74.4466 13.0343 73.6806 11.6476 72.7579 10.4252C71.0725 8.19222 68.6309 6.53785 65.9088 6.19871C64.5343 6.02746 63.1135 6.20895 61.8018 6.77367C60.6167 7.28391 59.3803 8.1617 58.0707 7.92039C56.6457 7.65775 55.6655 6.10946 54.7291 5.0707C53.6733 3.89961 52.4788 2.94024 51.0561 2.32839C48.6728 1.30353 46.1315 1.55357 43.9156 3.14694C41.5576 4.84253 39.447 7.66507 39.9333 10.812C40.0237 11.3969 40.1986 11.9147 40.5169 12.387C40.809 12.8202 41.2941 13.3246 41.3117 13.9048C41.3302 14.5215 40.6603 15.1441 40.3428 15.6172C39.8879 16.295 39.472 17.0219 39.3487 17.8512C39.1462 19.2131 39.6728 20.6927 40.3452 21.7887C41.0294 22.904 42.0173 23.692 43.1496 24.224C43.9057 24.5793 44.6968 24.8685 45.5198 25.0111C45.9283 25.0819 46.3099 25.0597 46.7205 25.0688C47.1198 25.0776 47.3063 25.2298 47.5758 25.5152C48.8277 26.8414 50.3376 27.6102 52.0934 27.8972C53.5753 28.1393 55.3358 28.2078 56.7661 27.5171C58.3545 26.7499 58.7048 25.2333 58.7976 23.5427C59.0854 23.7855 59.9677 24.1115 59.5857 23.3342C59.4343 23.0264 59.0543 22.8217 58.8161 22.6034C58.5386 22.3493 58.2689 22.043 58.0906 21.6968C57.3705 20.2989 58.9687 18.2179 60.3291 18.1485C62.3503 18.0454 62.1144 20.7837 63.2857 21.7993C63.9591 22.3833 64.8993 22.049 65.6133 21.6465C66.5698 21.1071 67.3391 20.2685 68.0406 19.3949C68.6184 18.6754 69.173 17.9381 69.757 17.2245C70.0297 16.8912 70.914 15.9774 70.7101 15.4729C72.1221 15.5424 73.4827 16.4704 74.4604 17.4861C74.8645 17.9061 75.1471 18.3284 75.2703 18.9225C75.2967 19.0498 75.3316 19.4174 75.4778 19.4686C75.7499 19.5638 75.73 19.2005 75.7425 19.0331Z" fill="#191847"/>
<path fill-rule="evenodd" clip-rule="evenodd" d="M88.7455 77.7329L103.686 89.0555C107.772 90.2292 111.177 91.6603 113.902 93.3487C114.543 93.9499 115.308 95.1582 112.614 94.9046C109.919 94.6511 107.074 94.505 106.686 95.4142C106.298 96.3233 107.911 97.4469 107.137 98.6692C106.621 99.4841 104.287 97.3775 100.135 92.3493L85.2564 85.9038L88.7455 77.7329ZM30.6325 77.1003L40.5464 77.3122C34.0814 96.8702 30.5944 107.247 30.0855 108.441C28.9404 111.129 31.1916 115.293 32.1464 117.526C28.8855 118.911 29.3234 113.581 25.2087 115.399C21.4529 117.059 18.5643 120.135 14.306 117.417C13.7824 117.082 13.2239 115.849 14.6417 114.917C18.1741 112.596 23.2774 108.516 23.981 107.155C24.9406 105.3 27.1577 95.2821 30.6325 77.1003Z" fill="#B28B67"/>
<path fill-rule="evenodd" clip-rule="evenodd" d="M59.5308 36.1944L63.6456 35.5658C78.6388 48.916 84.4522 74.1622 102.878 87.8039L98.2902 93.2647C65.9916 88.7117 58.5041 57.9106 59.5308 36.1944Z" fill="#E87613"/>
<path fill-rule="evenodd" clip-rule="evenodd" d="M40.7511 87.1848C57.2008 87.4719 69.3009 87.6831 77.0513 87.8184C78.71 87.8473 78.4391 85.4585 78.2203 84.2517C75.6952 70.3233 65.1537 55.1727 65.4986 35.4148L55.0564 33.5982C46.1539 47.3073 42.861 64.3197 40.7511 87.1848Z" fill="#DDE3E9"/>
<path fill-rule="evenodd" clip-rule="evenodd" d="M41.7445 46.994C40.2314 46.5324 39.0448 45.4969 38.1849 43.8874C34.4778 36.949 35.9259 33.1899 40.0375 32.0177C44.1492 30.8455 47.7518 33.4707 54.2681 33.5845C54.6225 33.5906 54.9468 33.6184 55.2408 33.6678L58.5154 33.9111C67.3664 65.7914 69.5907 86.9972 65.1885 97.5285L36.6174 97.0298C34.8561 100.928 33.1785 104.205 31.5848 106.859L23.7997 106.723C23.4785 83.137 29.4601 63.2272 41.7445 46.994Z" fill="#FF9B21"/>
<path fill-rule="evenodd" clip-rule="evenodd" d="M43.1233 80.8497C43.8912 88.3465 45.2569 93.8016 47.2203 97.2149L36.6174 97.0298C38.672 92.4825 40.8406 87.0892 43.1233 80.8497V80.8497Z" fill="black" fill-opacity="0.1"/>
</svg>
